<svg xmlns="http://www.w3.org/2000/svg" xmlns:xlink="http://www.w3.org/1999/xlink" viewBox="0 0 994.51 1102.06"><defs><style>.cls-1{fill:url(#linear-gradient);}.cls-2{fill:url(#linear-gradient-2);}.cls-3{fill:url(#linear-gradient-3);}.cls-4{fill:url(#linear-gradient-4);}.cls-5{fill:url(#linear-gradient-5);}.cls-6{fill:url(#linear-gradient-6);}.cls-7{fill:url(#linear-gradient-7);}.cls-8{fill:url(#linear-gradient-8);}.cls-9{fill:url(#linear-gradient-9);}.cls-10{fill:url(#linear-gradient-10);}.cls-11{fill:url(#linear-gradient-11);}.cls-12{fill:url(#linear-gradient-12);}.cls-13{fill:url(#linear-gradient-13);}.cls-14{fill:url(#linear-gradient-14);}.cls-15{fill:url(#linear-gradient-15);}.cls-16{fill:url(#linear-gradient-16);}</style><linearGradient id="linear-gradient" x1="-120.07" y1="886.69" x2="740.87" y2="837.66" gradientUnits="userSpaceOnUse"><stop offset="0" stop-color="#9c7645"/><stop offset="0.51" stop-color="#e9b876"/><stop offset="1" stop-color="#b18852"/></linearGradient><linearGradient id="linear-gradient-2" x1="-118.93" y1="906.7" x2="742.01" y2="857.68" xlink:href="#linear-gradient"/><linearGradient id="linear-gradient-3" x1="-119.38" y1="898.77" x2="741.56" y2="849.75" xlink:href="#linear-gradient"/><linearGradient id="linear-gradient-4" x1="-118.3" y1="917.74" x2="742.64" y2="868.72" xlink:href="#linear-gradient"/><linearGradient id="linear-gradient-5" x1="-117.97" y1="923.48" x2="742.96" y2="874.46" xlink:href="#linear-gradient"/><linearGradient id="linear-gradient-6" x1="-117.66" y1="929.05" x2="743.28" y2="880.03" xlink:href="#linear-gradient"/><linearGradient id="linear-gradient-7" x1="-112.64" y1="1017.16" x2="748.3" y2="968.13" xlink:href="#linear-gradient"/><linearGradient id="linear-gradient-8" x1="-111.36" y1="1039.64" x2="749.58" y2="990.61" xlink:href="#linear-gradient"/><linearGradient id="linear-gradient-9" x1="-111.02" y1="1045.6" x2="749.92" y2="996.58" xlink:href="#linear-gradient"/><linearGradient id="linear-gradient-10" x1="-111.71" y1="1033.41" x2="749.22" y2="984.38" xlink:href="#linear-gradient"/><linearGradient id="linear-gradient-11" x1="-111.67" y1="1034.26" x2="749.27" y2="985.23" xlink:href="#linear-gradient"/><linearGradient id="linear-gradient-12" x1="-109.47" y1="1072.83" x2="751.47" y2="1023.81" xlink:href="#linear-gradient"/><linearGradient id="linear-gradient-13" x1="-110.04" y1="1062.78" x2="750.89" y2="1013.76" xlink:href="#linear-gradient"/><linearGradient id="linear-gradient-14" x1="-109.69" y1="1068.98" x2="751.25" y2="1019.96" xlink:href="#linear-gradient"/><linearGradient id="linear-gradient-15" x1="2848.18" y1="628.01" x2="2849.12" y2="628.01" gradientTransform="matrix(578.42, 0, 0, -703.11, -1647005.31, 442296.87)" xlink:href="#linear-gradient"/><linearGradient id="linear-gradient-16" x1="2849.31" y1="628.01" x2="2850.26" y2="628.01" gradientTransform="matrix(742.68, 0, 0, -876.66, -2116069.14, 550965.73)" xlink:href="#linear-gradient"/></defs><g id="Layer_2" data-name="Layer 2"><g id="logo"><g id="Layer_1-2" data-name="Layer 1"><path id="Path_121" data-name="Path 121" class="cls-1" d="M103,912.21A54.19,54.19,0,0,1,57,934.09a53.42,53.42,0,0,1-43.59-19.2A59.18,59.18,0,0,1,0,875.82,55.54,55.54,0,0,1,54.28,819c.84,0,1.69,0,2.53,0A52.6,52.6,0,0,1,103,841.94l-8.28,6.67A44.48,44.48,0,0,0,57,829.72a45.44,45.44,0,0,0-23,6.13,43.22,43.22,0,0,0-16.92,16.92,48.52,48.52,0,0,0-6,24,45.29,45.29,0,0,0,43.72,46.81c.94,0,1.88,0,2.82,0a46.33,46.33,0,0,0,37-17.9Z"/><path id="Path_122" data-name="Path 122" class="cls-2" d="M199.9,931.32h-10V917.49a38.37,38.37,0,0,1-31.32,16.07,37.16,37.16,0,0,1-28.47-12.72,43,43,0,0,1-11.28-30.21,42.37,42.37,0,0,1,11.68-30A37.65,37.65,0,0,1,159,848.2a35.79,35.79,0,0,1,30.92,17V850.35h10ZM190.59,891a33.3,33.3,0,0,0-9-23.45,30,30,0,0,0-48.6,6.81,34,34,0,0,0,0,32.76,31.29,31.29,0,0,0,11.32,12.13,28.46,28.46,0,0,0,15.21,4.47,30.62,30.62,0,0,0,15.58-4.47,29.54,29.54,0,0,0,11.28-11.68,34.5,34.5,0,0,0,4.16-16.43Z"/><path id="Path_123" data-name="Path 123" class="cls-3" d="M300.1,931.32h-9.93V917.49a38.42,38.42,0,0,1-31.33,16.06,37.09,37.09,0,0,1-28.46-12.71,43,43,0,0,1-11.33-30.21,42.33,42.33,0,0,1,11.68-30,37.6,37.6,0,0,1,28.47-12.44,35.81,35.81,0,0,1,31,17V819h9.93ZM290.79,891A33.45,33.45,0,0,0,282,867.72a28.85,28.85,0,0,0-22-9.49,28.48,28.48,0,0,0-26.86,16.29,34,34,0,0,0,0,32.76,31.32,31.32,0,0,0,11.33,12.13,28.42,28.42,0,0,0,15.22,4.48,30.57,30.57,0,0,0,15.57-4.48,29.41,29.41,0,0,0,11.28-11.68,34.56,34.56,0,0,0,4.43-16.56Z"/><path id="Path_124" data-name="Path 124" class="cls-4" d="M399.33,891.57H329.42a34.64,34.64,0,0,0,8.14,22.69,26.88,26.88,0,0,0,21.13,9.54,30.16,30.16,0,0,0,21.08-7.88,48.47,48.47,0,0,0,8.5-11.55l8.46,4.48a41.61,41.61,0,0,1-21.84,21.62,40.29,40.29,0,0,1-15.35,2.77,38.27,38.27,0,0,1-29-12.08A42.37,42.37,0,0,1,319,890.77,44.76,44.76,0,0,1,328,863.24a36.69,36.69,0,0,1,30.83-15.35,37.78,37.78,0,0,1,31.91,15.89A45.82,45.82,0,0,1,399.33,891.57Zm-11-9a29.87,29.87,0,0,0-15.93-21.26,30.31,30.31,0,0,0-13.43-3A27.91,27.91,0,0,0,339.31,866a35.18,35.18,0,0,0-8.95,16.65Z"/><path id="Path_125" data-name="Path 125" class="cls-5" d="M495.5,931.32h-9.93V917.49a38.43,38.43,0,0,1-31.33,16.07,37,37,0,0,1-28.42-12.72,43.06,43.06,0,0,1-11.37-30.21,42.35,42.35,0,0,1,11.68-30,37.73,37.73,0,0,1,28.51-12.45,35.84,35.84,0,0,1,30.93,17V850.35h9.93ZM486.2,891a33.5,33.5,0,0,0-8.73-23.45,30.07,30.07,0,0,0-48.65,6.81,34,34,0,0,0,0,32.76,31.44,31.44,0,0,0,11.32,12.13,28.69,28.69,0,0,0,15.27,4.47,30.25,30.25,0,0,0,15.53-4.47,29.37,29.37,0,0,0,11.32-11.68,34.55,34.55,0,0,0,3.94-16.43Z"/><path id="Path_126" data-name="Path 126" class="cls-6" d="M584.84,890a74.63,74.63,0,0,1-2.51,21.76,29.5,29.5,0,0,1-12.49,16.78,34.64,34.64,0,0,1-19,4.88c-14.9,0-25-6.13-30.3-18.3a66.61,66.61,0,0,1-3.8-25.88V850.35h10.16v37.82a81.1,81.1,0,0,0,1.43,19.11,20.9,20.9,0,0,0,8.55,12,26.3,26.3,0,0,0,27.61,0,20.92,20.92,0,0,0,8.55-11.46A82.59,82.59,0,0,0,574.54,888v-37.6h10.3Z"/><path id="Path_127" data-name="Path 127" class="cls-7" d="M87.34,1034.12a35.07,35.07,0,0,1-5.06,18.26,32.46,32.46,0,0,1-13.79,12.8,51.06,51.06,0,0,1-22.91,4.21H11.74V948.55h19a99.63,99.63,0,0,1,24.17,2.15,32.56,32.56,0,0,1,17,10.42,28.38,28.38,0,0,1-3.54,40,26.79,26.79,0,0,1-2.24,1.69C80.27,1009.41,87.34,1019.89,87.34,1034.12ZM56,982.74q0-12.35-15.53-12.35H34.75v25.47h5c10.93,0,16.43-4.39,16.43-13.12Zm8.46,50.62q0-16.83-25.16-16.88H34.75v31.07H40.3a47,47,0,0,0,16-2,12,12,0,0,0,8.37-12.17Z"/><path id="Path_128" data-name="Path 128" class="cls-8" d="M196.23,1024.63a47.21,47.21,0,0,1-6.27,23.63,44.75,44.75,0,0,1-17.1,17.24,47.77,47.77,0,0,1-23.94,6.17A44.73,44.73,0,0,1,116,1058.24a47.56,47.56,0,0,1,1-67.27c.3-.3.62-.6.93-.89a44.77,44.77,0,0,1,31-12.13,47.92,47.92,0,0,1,23.77,6.26A45.08,45.08,0,0,1,190,1001.4,46.36,46.36,0,0,1,196.23,1024.63Zm-22.74,0a26.44,26.44,0,0,0-6.67-18.44,22.62,22.62,0,0,0-17.9-7.34,22.89,22.89,0,0,0-17.68,7.56,26.28,26.28,0,0,0-6.31,18.49,26.66,26.66,0,0,0,6.49,18.44,22.4,22.4,0,0,0,17.9,7.61,22.66,22.66,0,0,0,17.9-7.61,26.56,26.56,0,0,0,6.27-18.44Z"/><path id="Path_129" data-name="Path 129" class="cls-9" d="M293,1017.87c0,15.62-1.26,26.28-3.72,32.05q-9.3,21.75-35.8,21.75-28.69,0-36.57-24.88a112.3,112.3,0,0,1-2.63-29.59V980.15h22.95v43a86.06,86.06,0,0,0,.72,13.42,17.1,17.1,0,0,0,6.53,11.41,15.51,15.51,0,0,0,9.31,2.69A14.86,14.86,0,0,0,269,1040.21a60.34,60.34,0,0,0,1.39-16.52V980.15h22.37Z"/><path id="Path_130" data-name="Path 130" class="cls-10" d="M353.81,999.39H340.38v70H318v-70H306.68V980.15h11.51V947.2h22.37v32.95H354Z"/><path id="Path_131" data-name="Path 131" class="cls-11" d="M389,957.77a13.86,13.86,0,0,1-4.07,10.29,13.46,13.46,0,0,1-10,4.25,13.86,13.86,0,0,1-10.25-4.47,14.54,14.54,0,0,1-4.16-10.48,14.23,14.23,0,0,1,24.43-9.8A14.06,14.06,0,0,1,389,957.77Zm-3,111.48H363.66V980.14H386Z"/><path id="Path_132" data-name="Path 132" class="cls-12" d="M494.61,1102.06H472.23v-42.12a39.33,39.33,0,0,1-55.63.23,35.29,35.29,0,0,1-2.55-2.78,48.62,48.62,0,0,1-11.95-32.49,49.54,49.54,0,0,1,11.19-32.76,39.43,39.43,0,0,1,55.5-5.38,38.9,38.9,0,0,1,3.4,3.14v-9.75h22.38Zm-21.35-77.52a26.52,26.52,0,0,0-6.75-18.62,22.72,22.72,0,0,0-17.91-7.43,22.41,22.41,0,0,0-17.9,7.7,29.35,29.35,0,0,0,.09,36.92,22.37,22.37,0,0,0,17.91,8,22.8,22.8,0,0,0,17.9-7.79A27.67,27.67,0,0,0,473.26,1024.54Z"/><path id="Path_133" data-name="Path 133" class="cls-13" d="M595.71,1017.87c0,15.62-1.25,26.28-3.71,32.05q-9.36,21.75-35.8,21.75-28.69,0-36.57-24.88A112.31,112.31,0,0,1,517,1017.2V980.15h22.78v43a86.06,86.06,0,0,0,.72,13.42A17.16,17.16,0,0,0,547,1048a15.46,15.46,0,0,0,9.3,2.69,14.86,14.86,0,0,0,15.22-10.47,60.33,60.33,0,0,0,1.38-16.52V980.15h22.38Z"/><path id="Path_134" data-name="Path 134" class="cls-14" d="M707.78,1026.92v4.47h-72a23.38,23.38,0,0,0,8.55,15.27,26.55,26.55,0,0,0,17,5.46,30,30,0,0,0,21.57-8.73l18.84,8.95a46.18,46.18,0,0,1-40.28,19.6,47,47,0,0,1-34-13,44.74,44.74,0,0,1-13.43-33.52,46.88,46.88,0,0,1,13-33.83,43.78,43.78,0,0,1,33.2-13.43,46,46,0,0,1,34.33,13.43A47.66,47.66,0,0,1,707.78,1026.92Zm-22.65-13.43a21.82,21.82,0,0,0-8.94-12.22,26,26,0,0,0-14.86-4.48A26.91,26.91,0,0,0,645,1002a28.78,28.78,0,0,0-8.19,11.45Z"/><path id="Path_135" data-name="Path 135" class="cls-15" d="M983.74,824c-14.5-44-40.9-77.12-84-94.48a23.32,23.32,0,0,1-4.92-4c9.44-6,18.35-11,26.49-17.05A127.43,127.43,0,0,0,971,634.23c20.1-81.55-18.79-166.72-92.64-202.39-38.18-18.43-78.86-24.83-120.57-25-98.46-.36-196.61,0-294.94,0H449.77V592.12H567.56V521.4a23.93,23.93,0,0,1,5.28-1.7c64.32,0,128.63-.8,192.94.54,29.9.62,56.71,11.86,75.19,38,29.18,41.27,13.7,91.16-33.47,106.7-12.58,4.16-25.87,5.95-41,9.35,0,25.42-.31,50.89,0,76.31.45,30.93-7,28.15,29,37.86A117.38,117.38,0,0,1,857,826c28.69,34.24,22.83,82.44-15.13,104.64a188.41,188.41,0,0,1-58.18,19.83c-19,3.85-39,2.91-58.18,4v114c50.39,1.48,99.31-.63,146.71-16.34C971.21,1019.35,1017,925.36,983.74,824Z"/><path id="Path_136" data-name="Path 136" class="cls-16" d="M670.81,574.75l-5.46,10.83a270,270,0,0,1-96.09,106.25A256.54,256.54,0,0,1,430.12,731,255.12,255.12,0,0,1,243.76,654.1c-50.8-52.1-76.53-114.71-76.53-186a259.56,259.56,0,0,1,76.08-186.5,256,256,0,0,1,140.4-73.22l-81.1,97.35,55-21.57,18.62,54.06L429,204.49h5.59l52.59,128.18L502,288.31l67.14,25.92-89.6-105.4a244,244,0,0,1,89.78,35.49A266.47,266.47,0,0,1,665.4,349.94l5.5,10.7H772.77l-11.33-27.25A360,360,0,0,0,632.32,172.85a354.43,354.43,0,0,0-32.09-19.56C637.69,124.51,641.76,15,606.18,1.79,572-10.92,489.33,47.49,463,67.14a28.84,28.84,0,0,0-23.45-12.09H435.4a36.79,36.79,0,0,0-29,14C383.35,51.78,295.85-11.46,260.45,2s-31.69,118,3.63,149.44A363.77,363.77,0,0,0,178,215.85c-69.42,69.38-104.6,154.23-104.6,252.2S108.55,651.1,178,721,332.19,825.6,430.16,825.6a347.83,347.83,0,0,0,202.16-63A356,356,0,0,0,761.49,602.05l11.32-27.3ZM460.1,110.82l1.71,1.78-3-.26A15.47,15.47,0,0,0,460.1,110.82Z"/></g></g></g></svg>