<svg xmlns="http://www.w3.org/2000/svg" xmlns:xlink="http://www.w3.org/1999/xlink" viewBox="0 0 879.64 196.05"><defs><style>.cls-1{fill:#423836;}.cls-2{fill:url(#radial-gradient);}.cls-3{fill:url(#radial-gradient-2);}.cls-4{fill:url(#radial-gradient-3);}.cls-5{fill:url(#radial-gradient-4);}.cls-6{fill:url(#radial-gradient-5);}.cls-7{fill:url(#radial-gradient-6);}.cls-8{fill:url(#radial-gradient-7);}.cls-9{fill:url(#radial-gradient-8);}</style><radialGradient id="radial-gradient" cx="-1944.6" cy="1559.76" r="2.48" gradientTransform="matrix(17.28, 0, 0, -17.27, 34111.81, 26998.76)" gradientUnits="userSpaceOnUse"><stop offset="0" stop-color="#ccb08d"/><stop offset="0.57" stop-color="#a3884a"/><stop offset="1" stop-color="#7a5d25"/></radialGradient><radialGradient id="radial-gradient-2" cx="-1955.79" cy="1559.89" r="2.93" gradientTransform="matrix(17.36, 0, 0, -17.35, 34245.78, 27114.56)" xlink:href="#radial-gradient"/><radialGradient id="radial-gradient-3" cx="-1966.17" cy="1560.91" r="3.34" gradientTransform="matrix(17.98, 0, 0, -17.98, 35531.45, 28115.34)" xlink:href="#radial-gradient"/><radialGradient id="radial-gradient-4" cx="-1945.52" cy="1560.91" r="3.34" gradientTransform="matrix(17.98, 0, 0, -17.98, 35601.83, 28115.34)" xlink:href="#radial-gradient"/><radialGradient id="radial-gradient-5" cx="-1972.59" cy="1560.94" r="2.92" gradientTransform="matrix(18.05, 0, 0, -18.06, 35659.1, 28255.41)" xlink:href="#radial-gradient"/><radialGradient id="radial-gradient-6" cx="-1953.17" cy="1560.39" r="3.15" gradientTransform="matrix(17.77, 0, 0, -17.71, 35131.21, 27698.91)" xlink:href="#radial-gradient"/><radialGradient id="radial-gradient-7" cx="-1928.11" cy="1559.76" r="2.48" gradientTransform="matrix(17.27, 0, 0, -17.27, 34153.92, 26998.77)" xlink:href="#radial-gradient"/><radialGradient id="radial-gradient-8" cx="-1940.37" cy="1561.01" r="3.23" gradientTransform="matrix(18.13, 0, 0, -18.14, 35923.7, 28379.18)" xlink:href="#radial-gradient"/></defs><g id="Layer_2" data-name="Layer 2"><g id="Layer_1-2" data-name="Layer 1"><g id="navlogo"><g id="Layer_1-3" data-name="Layer 1"><rect id="Rectangle_204" data-name="Rectangle 204" class="cls-1" x="82.25" y="178.47" width="88.42" height="1.81"/><rect id="Rectangle_205" data-name="Rectangle 205" class="cls-1" x="709.17" y="178.47" width="88.42" height="1.81"/><path id="Path_1362" data-name="Path 1362" class="cls-1" d="M196.66,166.42a17.36,17.36,0,0,1,17.12-4.32,15.57,15.57,0,0,1,3.86,1.73,23.83,23.83,0,0,1,2.71,2.09,10.78,10.78,0,0,1,1.67,1.77l.54.71-2.42,2.08a5.23,5.23,0,0,0-.41-.63,15.5,15.5,0,0,0-1.32-1.37,14.93,14.93,0,0,0-2.22-1.74,13.31,13.31,0,0,0-3.19-1.39,13.54,13.54,0,0,0-13.82,3.5,14.36,14.36,0,0,0,0,19.8,13.15,13.15,0,0,0,9.71,4,15.48,15.48,0,0,0,3.84-.48,14,14,0,0,0,3-1.15c.78-.46,1.47-.9,2.08-1.31a6.55,6.55,0,0,0,1.26-1.15l.39-.46v-6.57h-7.68v-3.39H223V189a5.81,5.81,0,0,1-.58.73c-.3.32-.85.85-1.75,1.65a18.5,18.5,0,0,1-2.88,2.08,18.25,18.25,0,0,1-8.94,2.51,17.29,17.29,0,0,1-12.21-29.5Z"/><path id="Path_1363" data-name="Path 1363" class="cls-1" d="M260.18,192.08v3.35H236.69V161.86h22.9v3.37h-19.4v11h15.57v3.36H240.19v12.5Z"/><path id="Path_1364" data-name="Path 1364" class="cls-1" d="M272.14,195.43V161.86h3.61v30.22H293v3.35Z"/><path id="Path_1365" data-name="Path 1365" class="cls-1" d="M307.59,186.1l-3.84,9.33h-3.83l13.9-33.58h3.33l13.94,33.58h-3.83l-3.86-9.34Zm7.92-19.2L309,182.72H322Z"/><path id="Path_1366" data-name="Path 1366" class="cls-1" d="M359.86,161.86v3.37H349.29v30.2h-3.58v-30.2H335.16v-3.37Z"/><path id="Path_1367" data-name="Path 1367" class="cls-1" d="M396,190.9a17.33,17.33,0,1,1,5-12.21A16.66,16.66,0,0,1,396,190.9Zm-21.93-2.31a13.82,13.82,0,0,0,19.46,0,14.39,14.39,0,0,0,0-19.81,13.74,13.74,0,0,0-19.43,0l0,0a14.37,14.37,0,0,0,0,19.78Z"/><path id="Path_1368" data-name="Path 1368" class="cls-1" d="M442.11,171.45a11.5,11.5,0,0,1-1.56,2.61c-.58.72-1.19,1.42-1.84,2.08a17.79,17.79,0,0,1-1.5,1.37l-.69.48,7.67,9.36c.17-.24.35-.57.63-1a17.35,17.35,0,0,0,1-2.79,16.07,16.07,0,0,0,.63-4.36h3.1a20.32,20.32,0,0,1-1.08,6.61c-.32.84-.63,1.59-.94,2.25s-.58,1.13-.77,1.44l-.31.48a5.94,5.94,0,0,0,1.91,2.07,3.19,3.19,0,0,0,1.92.79l1.42-.23v3.1a5.7,5.7,0,0,1-1.69.23,4.71,4.71,0,0,1-1.88-.37,5.09,5.09,0,0,1-1.52-.94,12.59,12.59,0,0,1-1.15-1.16,7.59,7.59,0,0,1-.73-1l-.23-.38-.39.39a12,12,0,0,1-1.09.94,9.77,9.77,0,0,1-1.79,1.19,13.07,13.07,0,0,1-5.53,1.25,10.06,10.06,0,0,1-6.9-2.38,7.45,7.45,0,0,1-2.71-5.77,8.31,8.31,0,0,1,.69-3.3,11.6,11.6,0,0,1,1.61-2.74,21.9,21.9,0,0,1,1.88-2.09,12.71,12.71,0,0,1,1.62-1.31l.69-.44-.53-.54c-.24-.23-.63-.73-1.26-1.46a25.73,25.73,0,0,1-1.52-2.08,14.78,14.78,0,0,1-1.21-2.42,6.94,6.94,0,0,1,1.69-7.79,8,8,0,0,1,10.88,0,6.76,6.76,0,0,1,2.23,5.06A7.43,7.43,0,0,1,442.11,171.45Zm-7.73,8.34-.57.44c-.23.19-.66.58-1.25,1.17a18.2,18.2,0,0,0-1.61,1.79,11.33,11.33,0,0,0-1.25,2.09,5.61,5.61,0,0,0-.59,2.37,4.49,4.49,0,0,0,1.73,3.68,7.47,7.47,0,0,0,4.76,1.37,9.41,9.41,0,0,0,3.58-.71,7.83,7.83,0,0,0,2.4-1.44l.72-.72Zm-2.78-8a20.17,20.17,0,0,0,2.09,2.84l1.1,1.09a3.42,3.42,0,0,0,.52-.4,12.79,12.79,0,0,0,1.17-1,18.37,18.37,0,0,0,1.44-1.61,10.29,10.29,0,0,0,1.15-1.88,4.71,4.71,0,0,0,.52-2.08,4,4,0,0,0-1.3-3.07,4.54,4.54,0,0,0-3.25-1.25,4.46,4.46,0,0,0-3.25,1.25,4.05,4.05,0,0,0-1.31,3.07,6.18,6.18,0,0,0,1.12,3.13Z"/><path id="Path_1369" data-name="Path 1369" class="cls-1" d="M479.2,166.42a17.33,17.33,0,0,1,17.11-4.32,15.7,15.7,0,0,1,3.88,1.73,22.77,22.77,0,0,1,2.69,2.09,10,10,0,0,1,1.67,1.77l.54.71-2.42,2.08a5.23,5.23,0,0,0-.41-.63,17,17,0,0,0-1.31-1.37,15,15,0,0,0-2.23-1.74,13.78,13.78,0,0,0-3.14-1.39,13.37,13.37,0,0,0-4.16-.63,13.18,13.18,0,0,0-9.68,4.13,14.37,14.37,0,0,0,0,19.8,13.19,13.19,0,0,0,9.72,4,14.73,14.73,0,0,0,4.17-.63,12.6,12.6,0,0,0,3.25-1.44,24.8,24.8,0,0,0,2.29-1.67,7.29,7.29,0,0,0,1.4-1.48l.45-.58,2.38,2.08a7.85,7.85,0,0,1-.56.73c-.27.31-.84.85-1.71,1.64a19.14,19.14,0,0,1-2.81,2.09,16.87,16.87,0,0,1-3.85,1.67,17.28,17.28,0,0,1-17.18-28.75Z"/><path id="Path_1370" data-name="Path 1370" class="cls-1" d="M543.39,190.9a17.33,17.33,0,1,1,5-12.21A16.62,16.62,0,0,1,543.39,190.9Zm-21.92-2.31a13.81,13.81,0,0,0,19.45,0,14.37,14.37,0,0,0,0-19.81,13.74,13.74,0,0,0-19.43,0l0,0a14.36,14.36,0,0,0,0,19.78Z"/><path id="Path_1371" data-name="Path 1371" class="cls-1" d="M583.94,161.86v3.37H564.76v11.49h15.35v3.37H564.76v15.34h-3.61V161.86Z"/><path id="Path_1372" data-name="Path 1372" class="cls-1" d="M618.21,161.86v3.37H599v11.49h15.35v3.37H599v15.34h-3.61V161.86Z"/><path id="Path_1373" data-name="Path 1373" class="cls-1" d="M653.2,192.08v3.35H629.69V161.86h22.93v3.37H633.21v11h15.57v3.36H633.21v12.5Z"/><path id="Path_1374" data-name="Path 1374" class="cls-1" d="M688.66,192.08v3.35H665.14V161.86h22.93v3.37h-19.4v11h15.57v3.36H668.67v12.5Z"/><path id="Path_1375" data-name="Path 1375" class="cls-2" d="M538,4.27H487.76V6.36h14V110.58h-14v2.08h53.78v-2.08h-14V6.36h14V4.27ZM521.53,110.58H504.44v-6.72h17.17Zm0-8.34H504.44V92.59h17.17Zm0-11.3H504.44V81.29h17.17Zm0-11.25H504.44V70.87h17.17Zm0-10.55H504.44V59.66h17.17Zm0-11.15H504.44V48.52h17.17Zm0-11.18H504.44V36.73h17.17Zm0-11.73H504.44V25.67h17.17Zm0-11H504.44V14.59h17.17Zm0-11H504.44V6.86h17.17Z"/><path id="Path_1376" data-name="Path 1376" class="cls-3" d="M328.82,9.23a52.64,52.64,0,0,0-14.59-4.17,106.3,106.3,0,0,0-14.8-1.14h-3.56q-7.75,0-15.55.23c-5.19.14-10.43.23-15.55.23h-14V6.46h14V110.68h-14v2.08h53.73v-2.08h-14V61.15h6.27a85.9,85.9,0,0,0,21.2-2.29,49,49,0,0,0,14.95-6.28,26.14,26.14,0,0,0,8.86-9.15,23,23,0,0,0,2.88-11.21,22.38,22.38,0,0,0-4.48-14.44,31.23,31.23,0,0,0-11.24-8.61ZM284.4,110.47H267.2v-6.61h17.18Zm0-8.34H267.2V92.59h17.18Zm0-11.29H267.2V81.29h17.18Zm0-11.26H267.2V70.87h17.18Zm0-10.55H267.2V59.62h17.18Zm0-11.15H267.2V48.47h17.18Zm0-11.17H267.2v-10h17.18Zm0-11.74H267.2V25.7h17.18Zm0-11H267.2V14.59h17.18Zm0-11H267.2V6.83c4.39,0,8.79,0,13.18-.23l4-.1Zm25.91,40.21A25.54,25.54,0,0,1,291.55,59h-1.16V6.42l2.73-.31h1.79a19.83,19.83,0,0,1,16.16,6.94,34.58,34.58,0,0,1,5,20.28,27.59,27.59,0,0,1-5.78,19.82Z"/><path id="Path_1377" data-name="Path 1377" class="cls-4" d="M235.75,110.72H226.2L178.16,0h-7.67L157.83,30.85h0l-32.76,79.87H112.25v2.09h28.83v-2.09H127.5l12.16-29.43h46.27l12.74,29.43H184.5v2.09h54.82v-2.09ZM197,57.82H178.85l-4.16-9.34h18.2Zm-8.71-20.08h0c.71,1.67,1.44,3.33,2.09,5l.19.46L192,46.64H174l-4.33-9.92h18.2ZM167.21,14.59l.35-.83,4.62-11.25H173l5,11.67-.58-1.31H168l-.4,1-.35.83h11l4,9.22H164l.13.25.69,1.56h18.26l4,9.21h-18.2l-4.71-10.77L164,23.9h0l-.27-.63Zm-4.16,53H145.19l13.93-33.85,3.14-7.65,2.4,5.5h0l15.59,36.09Zm28.24,18.76-2.15-5.09h0l-.79-1.81h0L184,69.58l-.27-.63h0l-4.18-9.33h18.13l4.17,9.32H183.72l.27.62.52,1.19h18.12l3.73,8.73h-18l.79,1.82h18.07l4.17,9.46H193.23Zm6.52,15.75h0l-3.94-9.54h18.2l4.17,9.46H197.85l.35.85Zm22,8.32H201.28l-2.75-6.6H217l2.91,6.6Z"/><path id="Path_1378" data-name="Path 1378" class="cls-5" d="M677.44,110.72h-9.59L619.83,0h-7.69L599.48,30.85h0l-32.77,79.87H553.9v2.09h28.83v-2.09H569.16l12.19-29.43h46.28l12.74,29.43h-14.2v2.09H681v-2.09Zm-38.79-52.9H620.49l-4.16-9.34h18.2Zm-8.71-20.08h0l2.19,5,.19.46,1.48,3.42H615.6l-4.36-9.92h18.24ZM608.87,14.6l.35-.83,4.63-11.26h.83l5,11.67-.62-1.31h-9.52l-.39,1-.36.83h11.07l4,9.22H605.6l.12.29.67,1.52h18.23l4,9.21H610.39L605.7,24.19l-.12-.3h0l-.3-.63Zm-4.17,53H586.77l13.93-34L603.83,26l2.4,5.57h0l15.59,36.08Zm28.24,18.76-2.15-5.09h0L630,79.49h0l-4.33-9.9L625.4,69h0l-4.19-9.34h18.15l4,9.32H625.33l.27.62.52,1.19h18.12L648,79.46H629.93l.79,1.81H648.8L653,90.74H634.83ZM639.4,102h0l-3.89-9.46H653.7l4.17,9.46H639.51l.36.85Zm22,8.34H642.85l-2.73-6.63h18.55l2.82,6.76Z"/><path id="Path_1379" data-name="Path 1379" class="cls-6" d="M93.32,80.53H90.88a51.62,51.62,0,0,1-4.27,12,42.15,42.15,0,0,1-7.15,10.29,34.67,34.67,0,0,1-9.84,7.24,27.27,27.27,0,0,1-11,2.67,38,38,0,0,1-12.51-2.36,21.12,21.12,0,0,1-10-8.53,45.54,45.54,0,0,1-5.79-16.42,153.46,153.46,0,0,1-1.83-26.22q0-12.06.91-22.18A54.51,54.51,0,0,1,33.52,19.6,25.86,25.86,0,0,1,43.19,8.15,30.46,30.46,0,0,1,58.44,4.09,28.39,28.39,0,0,1,71,7a29.26,29.26,0,0,1,9.32,7.59A43.47,43.47,0,0,1,86.4,24.81c1.56,3.71,2.9,7.25,4,10.58h5.46V4.27H90a3.6,3.6,0,0,1-1.52,2.67,4.89,4.89,0,0,1-1.25.38,19.39,19.39,0,0,1-3.27-.76C82,5.94,79.75,5.31,77.44,4.68s-5-1.3-7.78-1.93a40.66,40.66,0,0,0-4.92-.66h0a45,45,0,0,0-5.92-.36,59.89,59.89,0,0,0-6.28.32h0A55.63,55.63,0,0,0,37.1,5.86,60.45,60.45,0,0,0,5.25,35.43,52,52,0,0,0,0,58.87,52,52,0,0,0,4.74,81a58,58,0,0,0,12.5,17.76,59.06,59.06,0,0,0,18.2,11.93A55.25,55.25,0,0,0,55.68,115c1,0,2.08.11,3.06.11s2.65,0,3.92-.12h0a49.68,49.68,0,0,0,7.19-.76c2.94-.56,5.65-1.16,8.16-1.81s4.69-1.26,6.62-1.83a22.79,22.79,0,0,1,3.05-.69,3.91,3.91,0,0,1,1.31.52,5.22,5.22,0,0,1,1.83,2.51h6V80.53ZM29.18,12.84h.14c1.26-.75,2.42-1.56,3.69-2.21a23.78,23.78,0,0,0-1.75,2.25H29.18Zm-8.74,6.48c.46-.39.94-.73,1.4-1.1,1.17-1,2.36-1.94,3.57-2.84l1-.79H30a28.22,28.22,0,0,0-1.83,3.14c-.15.29-.34.52-.46.81-.42,1-.79,2.09-1.17,3.05-.27.69-.44,1.5-.66,2.23H16a53.14,53.14,0,0,1,4.39-4.49ZM14.59,25.7H25.43c-.17.63-.38,1.17-.54,1.8-.21.93-.38,1.88-.57,2.87-.27,1.44-.46,2.92-.63,4.4v.12H8.46A59.27,59.27,0,0,1,14.59,25.7Zm-10.16,19c0-.12.11-.25.15-.39a43.94,43.94,0,0,1,2.23-6.09.29.29,0,0,1,0-.13h0c.2-.45.39-.93.62-1.4H23.32v.15c-.27,3.09-.47,6.41-.62,9.8H3.93c.15-.63.25-1.29.44-1.92ZM2.7,55.39V55h0a51.2,51.2,0,0,1,.9-6.51h19c0,3-.17,6.14-.19,9.34H2.56C2.6,57,2.65,56.28,2.7,55.39ZM6.37,78.46h0A48.81,48.81,0,0,1,4.29,72v-.13H4.17A4.86,4.86,0,0,0,4,70.83H22.72V69H3.58a53.94,53.94,0,0,1-.93-7.38h0V59.7H22.53c0,3.27,0,6.36.2,9.32h0a11,11,0,0,0,.11,1.81h0c0,1,.13,2.08.19,3.06a2.41,2.41,0,0,1,0,.38c.14,1.88.33,3.69.52,5.44v-.16H6.88A8.33,8.33,0,0,1,6.37,78.46Zm1.3,2.84H23.61c.21,1.62.42,3.19.67,4.65s.58,2.81.9,4.17l.18.69H13.52A56.62,56.62,0,0,1,7.67,81.3Zm16.67,20.08a53.87,53.87,0,0,1-4.17-3.52c-.31-.3-.71-.52-1-.82A50.48,50.48,0,0,1,15,92.56H25.93a2.81,2.81,0,0,0,.25.9,45.34,45.34,0,0,0,2.29,6.28h0c.38.76.77,1.51,1.19,2.25h0c.23.39.44.85.69,1.25-.27-.39-.51-.83-.76-1.25H25.2ZM28,103.84h2.78a28.45,28.45,0,0,0,2.32,3,47,47,0,0,1-5.13-3Z"/><path id="Path_1380" data-name="Path 1380" class="cls-7" d="M470,106.6c-1,1-2.08,2.08-3.5,3.27a6.73,6.73,0,0,1-1.42.94l-.4.16-.71.24a4.32,4.32,0,0,1-3.58-1.09,8.78,8.78,0,0,1-1.77-3.81,54.59,54.59,0,0,1-1.31-9c-.29-3.86-.71-9-1.21-15.41a34.82,34.82,0,0,0-3.14-13.11,19.53,19.53,0,0,0-6.86-7.65A32,32,0,0,0,435.91,57q-5.88-1.38-13.34-2.75v-.77A59.49,59.49,0,0,0,433,51.58a35.58,35.58,0,0,0,9.67-4.16,22.43,22.43,0,0,0,7.09-7.09,19.11,19.11,0,0,0,2.74-10.42,21.2,21.2,0,0,0-3.58-12.65,26.15,26.15,0,0,0-9.05-8,40.87,40.87,0,0,0-12.13-4.17,70.09,70.09,0,0,0-12.51-1.25h-3.57q-6.42,0-12.65.23c-4.16.15-8.34.23-12.65.23H363.42V6.36h14V110.6h-14v2.08h53.74V110.6h-14V55.67h6.61a19.31,19.31,0,0,1,11,2.69,16.87,16.87,0,0,1,5.95,7.31,34.67,34.67,0,0,1,2.51,10.43q.51,5.85.83,12.11A80.51,80.51,0,0,0,430.7,97a22.08,22.08,0,0,0,2.86,8.69,17.7,17.7,0,0,0,7,6.63,12,12,0,0,0,1.42.63,18.14,18.14,0,0,0,4,1.29h.56c.94.19,2.09.33,3.14.46h0a56.19,56.19,0,0,0,5.65.27,39,39,0,0,0,4.46-.17,32.43,32.43,0,0,0,4.17-.46,18.49,18.49,0,0,0,4.65-1.46,13.86,13.86,0,0,0,3.36-2.21c1-.85,1.95-1.79,3-2.81l-1.52-1.37Zm-72.87,3.88H379.93v-6.62h17.16Zm0-8.34H379.93V92.59h17.16Zm0-11.3H379.93V81.29h17.16Zm0-11.25H379.93V70.87h17.16Zm0-10.55H379.93V59.62h17.16Zm0-11.16H379.93V48.47h17.16Zm0-11.17H379.93v-10h17.16Zm0-11.73H379.93V25.7h17.16Zm0-11H379.93V14.59h17.16Zm0-11H379.93V6.84h6.57c3.54,0,7.11,0,10.58-.17Zm49.57,17.13a20.37,20.37,0,0,1-.58,4.92H428a10.93,10.93,0,0,1-.11,1.81h17.42a15.91,15.91,0,0,1-1,2.4A20.21,20.21,0,0,1,438,45.47c-.71.45-1.52.81-2.29,1.21H425.57a17.17,17.17,0,0,1-.83,1.52l-.23.31h7c-.83.29-1.63.63-2.51.85a58.59,58.59,0,0,1-6.28,1.38,14.54,14.54,0,0,0,1.84-2.23h0c0-.11.18-.19.25-.31.29-.48.47-1,.77-1.52h0a20.57,20.57,0,0,0,2.08-6.57c.15-1.1.25-2.23.34-3.35h-.13a8.54,8.54,0,0,1,.13-1.82h.1V31.7a54.32,54.32,0,0,0-.21-6h18.37a25.51,25.51,0,0,1,.39,4.28Zm-3.13-11.3a15.84,15.84,0,0,1,2.35,5.11h-18.2c-.14-1.46-.29-2.92-.54-4.17a26,26,0,0,0-1.44-5.1h14.12a23.7,23.7,0,0,1,3.71,4.16ZM423.89,7.55a38.77,38.77,0,0,1,11.4,3.94c.71.38,1.26.92,1.94,1.36h-12.4a12.79,12.79,0,0,1,.54,1.18l-.63-1.18h0a12.72,12.72,0,0,0-1.12-2.09,14.44,14.44,0,0,0-3.9-3.89c1.32.25,2.78.45,4.15.7ZM422.55,47a13.48,13.48,0,0,1-6,5,26.11,26.11,0,0,1-10.81,1.86h-2.69V6.42l3.38-.31h1.88a23.52,23.52,0,0,1,7.42,1.46,12.86,12.86,0,0,1,5.88,4.65,20.76,20.76,0,0,1,3,7.92,62.65,62.65,0,0,1,.92,11.53v.23a60.44,60.44,0,0,1-.54,8.07,17.43,17.43,0,0,1-2.51,7Z"/><path id="Path_1381" data-name="Path 1381" class="cls-8" d="M879.64,6.42V4.34H825.8V6.42h14.05V110.64H825.8v2.09h53.84v-2.09h-14V6.42ZM859.53,110.48H842.35v-6.61h17.18Zm0-8.34H842.35V92.59h17.18Zm0-11.3H842.35V81.29h17.18Zm0-11.25H842.35V70.87h17.18Zm0-10.55H842.35V59.69h17.18Zm0-11.16H842.35V48.47h17.18Zm0-11.17H842.35v-10h17.18Zm0-11.73H842.35V25.7h17.18Zm0-11H842.35V14.59h17.18Zm0-11H842.35V6.84h17.18Z"/><path id="Path_1382" data-name="Path 1382" class="cls-9" d="M771.35,6.23H782c4.29,0,7.69,4.81,7.69,10.42V63.34L741.77,2.47H694.14V5.11h4.58l11.72,13.45,2,2.22v79.63a9.53,9.53,0,0,1-7.7,10.42H693.33v2.08h42.11v-2.09H724.77c-4.32,0-7.7-4.81-7.7-10.42V25.91l74.51,90.41h2.71V16.67A9.52,9.52,0,0,1,802,6.23h11.45V4.17H771.36ZM710,12.9,703.31,5h29.4l6.35,7.92Zm1.52,1.75h28.93l7.39,9.12H719.16Zm9.33,11.09h28.5l7.36,9.15H728.53Zm9.3,11h28L766,46.59H738.45ZM740,48.44h27.37l7.53,9.32H748Zm9.3,11.23h27.1l7.46,9.22H757.26Zm9.46,11.2h26.62l4.17,5.38V79.5H766.08Zm30.85,36.64-3-3.52h3Zm0-5.38H785l-7.9-9.38h12.51Zm0-11.29h-14l-7.91-9.57h22Z"/></g></g></g></g></svg>