<?xml version="1.0" encoding="utf-8"?>
<!-- Generator: Adobe Illustrator 26.3.1, SVG Export Plug-In . SVG Version: 6.00 Build 0)  -->
<svg version="1.1" id="Layer_1" xmlns="http://www.w3.org/2000/svg" xmlns:xlink="http://www.w3.org/1999/xlink" x="0px" y="0px"
	 viewBox="0 0 2000 2000" style="enable-background:new 0 0 2000 2000;" xml:space="preserve">
<style type="text/css">
	.st0{clip-path:url(#SVGID_00000072969997015834106290000016366249994987061152_);}
	.st1{fill:url(#SVGID_00000011714130853967719660000010593018680551918265_);}
	.st2{fill:url(#SVGID_00000042711785487951173930000008989379945910966461_);}
	.st3{fill:url(#SVGID_00000168104723104825077130000003724544161297747625_);}
	.st4{fill:url(#SVGID_00000146461623076733407620000014314957574095581084_);}
	.st5{fill:url(#SVGID_00000121257056021532063070000004741315196097694132_);}
	.st6{fill:url(#SVGID_00000152948902351795778820000009916599185304762551_);}
	.st7{fill:url(#SVGID_00000178197693838544502610000006041036627529129881_);}
	.st8{fill:url(#SVGID_00000124876924098477940750000004321722149144851844_);}
	.st9{fill:url(#SVGID_00000060014673487736593530000013903172544991460788_);}
	.st10{fill:url(#SVGID_00000054975693978920115180000016642106575664448651_);}
</style>
<g>
	<defs>
		<rect id="SVGID_1_" x="115.51" y="224" width="1774.15" height="1552.38"/>
	</defs>
	<clipPath id="SVGID_00000166667320377072372940000014958551591148883328_">
		<use xlink:href="#SVGID_1_"  style="overflow:visible;"/>
	</clipPath>
	<g style="clip-path:url(#SVGID_00000166667320377072372940000014958551591148883328_);">
		
			<radialGradient id="SVGID_00000039100623340800328460000003572941661607752615_" cx="701.8438" cy="1422.2472" r="0.7428" gradientTransform="matrix(757.466 0 0 -746.206 -531207.125 1062240.125)" gradientUnits="userSpaceOnUse">
			<stop  offset="0.34" style="stop-color:#C39864"/>
			<stop  offset="1" style="stop-color:#936036"/>
		</radialGradient>
		<path style="fill:url(#SVGID_00000039100623340800328460000003572941661607752615_);" d="M199.31,224
			c148.11,32.27,262.25,115.83,347.51,229.97c63.7,85.55,85.41,182.29,92.42,282.48c10.55,153.31-29.73,295.74-124.23,426.6
			c-25.69,34.25-53.66,66.75-83.72,97.28c-14.02,14.72-13.4,24.61-1.93,39.55c90.19,117.29,179.46,235.1,268.88,352.62
			c5.16,6.82,9.7,13.95,15.4,22.08c-36.12-15.34-70.63-29.36-103.74-45.23c-10.25-5.83-19-13.94-25.57-23.69
			c-63.41-82.13-126.39-164.51-188.93-247.14c-6.32-8.28-13.17-16.25-20.33-25.07c-24.88,9.58-26.88,22.31-14.48,38.71
			c27.65,36.72,54.99,73.67,83.18,110.16c31.73,41.17,40.2,84.32,10.09,127.87c-30.81,45.23-79.71,68.98-141.02,72.21
			c-23.57,1.37-47.22-0.21-70.4-4.68c-94.27-19.09-143.49-91.92-119.23-171.64c15.94-51.67,56.3-89.46,96.81-127.56
			c46.21-43.46,44.67-25.68,8.32-75.5c-31.73-43.54-64.93-86.24-97.12-129.47c-26.96-36.26-19.79-65.24,20.95-88.01
			c43.98-24.53,96.81-20.31,122,11.12c27.19,33.96,52.6,68.99,79.02,103.48c9.48,11.9,20.28,22.7,32.19,32.2
			c2.98-8.18,7.08-15.92,12.17-23c100.9-110.61,164.67-233.42,180.77-373.7c24.18-207.74-51.91-383.67-231.06-525.56
			C302.21,274.06,244.14,249.6,199.31,224z M299.82,1398.54l-12.4-0.85c-28.57,32.66-62.54,62.94-84.72,98.5
			c-37.05,59.95,0,116.75,79.02,129.25c68.01,10.88,132.17-43.39,106.21-94.68C364.75,1484.55,329.7,1442.84,299.82,1398.54z
			 M306.91,1296.66c17.18-10.12,26.73-18.47,14.71-34.11c-32.27-41.93-63.16-84.32-96.74-125.79c-5.7-6.98-22.03-7.66-33.43-11.34
			c1.46,9.73-0.46,21.23,5.01,28.82c28.27,39.09,58.38,77.27,88.11,115.68C291.35,1278.65,298.82,1287.08,306.91,1296.66z"/>
		
			<radialGradient id="SVGID_00000065775158831062893340000000649185283016161462_" cx="697.1223" cy="1440.0151" r="0.7434" gradientTransform="matrix(235.964 0 0 -260.988 -162599.5156 388456.7812)" gradientUnits="userSpaceOnUse">
			<stop  offset="0.34" style="stop-color:#C39864"/>
			<stop  offset="1" style="stop-color:#936036"/>
		</radialGradient>
		<path style="fill:url(#SVGID_00000065775158831062893340000000649185283016161462_);" d="M377.37,1742.58
			c-0.16,3.59-1.05,7.11-2.61,10.35c-1.56,3.24-3.77,6.13-6.48,8.5c-2.2,2.59-4.89,4.72-7.91,6.27c-3.03,1.55-6.33,2.5-9.72,2.77
			c-15.4,0-23.11-9.99-23.11-29.97c0-16.81,7.7-25.19,23.11-25.14C368.28,1715.36,377.37,1724.48,377.37,1742.58z"/>
		
			<radialGradient id="SVGID_00000096764986718101926730000005096762218928633523_" cx="698.7801" cy="1435.865" r="0.7434" gradientTransform="matrix(359.477 0 0 -388.004 -248922.5156 572083.1875)" gradientUnits="userSpaceOnUse">
			<stop  offset="0.34" style="stop-color:#C39864"/>
			<stop  offset="1" style="stop-color:#936036"/>
		</radialGradient>
		<path style="fill:url(#SVGID_00000096764986718101926730000005096762218928633523_);" d="M350.42,1776.38
			c-10.94,0-29.34-4.68-29.34-35.87c0-20,10.4-31.04,29.34-31.04c21.1,0,32.66,11.8,32.66,33.12c-0.17,4.36-1.21,8.65-3.08,12.59
			c-1.87,3.95-4.51,7.49-7.78,10.4c-2.73,3.15-6.06,5.73-9.81,7.59C358.66,1775.01,354.59,1776.11,350.42,1776.38z M350.42,1721.27
			c-12.25,0-17.48,5.75-17.48,19.24c0,21.39,9.32,24.07,17.48,24.07c5.24-0.62,10.04-3.23,13.4-7.29c2.22-1.8,4.06-4.03,5.38-6.56
			c1.32-2.53,2.11-5.31,2.32-8.15C371.21,1727.63,364.97,1721.27,350.42,1721.27z"/>
		
			<radialGradient id="SVGID_00000068673693182432739360000006179178502777597058_" cx="698.1595" cy="1440.0151" r="0.7434" gradientTransform="matrix(235.964 0 0 -260.988 -163553.2188 388456.7812)" gradientUnits="userSpaceOnUse">
			<stop  offset="0.34" style="stop-color:#C39864"/>
			<stop  offset="1" style="stop-color:#936036"/>
		</radialGradient>
		<path style="fill:url(#SVGID_00000068673693182432739360000006179178502777597058_);" d="M284.33,1742.58
			c-0.17,3.59-1.08,7.11-2.65,10.36s-3.79,6.13-6.51,8.5c-2.18,2.59-4.86,4.72-7.87,6.27s-6.31,2.5-9.69,2.77
			c-15.4,0-23.11-9.99-23.11-29.97c0-16.81,7.7-25.19,23.11-25.14C275.4,1715.36,284.33,1724.48,284.33,1742.58z"/>
		
			<radialGradient id="SVGID_00000170968198601111489440000002939298415717422007_" cx="699.6081" cy="1435.865" r="0.7434" gradientTransform="matrix(359.924 0 0 -388.004 -250390.625 572083.1875)" gradientUnits="userSpaceOnUse">
			<stop  offset="0.34" style="stop-color:#C39864"/>
			<stop  offset="1" style="stop-color:#936036"/>
		</radialGradient>
		<path style="fill:url(#SVGID_00000170968198601111489440000002939298415717422007_);" d="M257.61,1776.38
			c-11.01,0-29.42-4.68-29.42-35.87c0-20,10.47-31.04,29.42-31.04c21.03,0,32.66,11.8,32.66,33.12c-0.18,4.36-1.24,8.64-3.1,12.59
			c-1.87,3.95-4.5,7.49-7.76,10.41c-2.74,3.14-6.07,5.72-9.81,7.58C265.85,1775,261.78,1776.1,257.61,1776.38z M257.61,1721.27
			c-12.32,0-17.56,5.75-17.56,19.24c0,21.39,9.4,24.07,17.56,24.07c5.24-0.63,10.03-3.24,13.4-7.29c2.21-1.81,4.03-4.04,5.36-6.58
			c1.32-2.53,2.12-5.29,2.35-8.13C278.4,1727.63,272.16,1721.27,257.61,1721.27z"/>
		
			<radialGradient id="SVGID_00000148636927148717482750000018261807802556659367_" cx="688.8881" cy="1430.0323" r="0.7434" gradientTransform="matrix(359.475 0 0 -388.007 -235065.125 563269.125)" gradientUnits="userSpaceOnUse">
			<stop  offset="0.34" style="stop-color:#C39864"/>
			<stop  offset="1" style="stop-color:#936036"/>
		</radialGradient>
		<path style="fill:url(#SVGID_00000148636927148717482750000018261807802556659367_);" d="M1463.89,1051.89
			c-18.94,0-29.34,11.04-29.34,31.05c0,31.2,18.41,35.87,29.34,35.87c4.19-0.24,8.27-1.32,12.02-3.17s7.08-4.45,9.78-7.63
			c3.28-2.9,5.93-6.44,7.81-10.39c1.87-3.95,2.91-8.24,3.05-12.61C1496.54,1063.32,1484.99,1051.89,1463.89,1051.89z"/>
		
			<radialGradient id="SVGID_00000072260157964344129640000012087554374840420232_" cx="701.4031" cy="1422.3729" r="0.7434" gradientTransform="matrix(7523.4502 0 0 -25521.8008 -5244291 36401264)" gradientUnits="userSpaceOnUse">
			<stop  offset="0.34" style="stop-color:#C39864"/>
			<stop  offset="1" style="stop-color:#936036"/>
		</radialGradient>
		<path style="fill:url(#SVGID_00000072260157964344129640000012087554374840420232_);" d="M1436.78,1208.51l-2.23,1.76v464.08
			c0,15.33-10.32,30.66-30.81,45.53c-16.63,13.67-36.63,22.67-57.92,26.06l-32.27,3.22l31.27,8.36c5.52,1.35,11.13,2.33,16.79,2.91
			c5.54,0.83,11.12,1.32,16.72,1.46c78.33,0,117.99-32.73,117.99-97.28v-522.72l-10.55,13.11
			C1471.22,1174.38,1454.82,1192.3,1436.78,1208.51z"/>
		
			<radialGradient id="SVGID_00000062156321021126002330000008226022654459607987_" cx="701.7105" cy="1421.7651" r="0.7434" gradientTransform="matrix(20770.8008 0 0 -52336.3984 -14499626 74524320)" gradientUnits="userSpaceOnUse">
			<stop  offset="0.34" style="stop-color:#C39864"/>
			<stop  offset="1" style="stop-color:#936036"/>
		</radialGradient>
		<path style="fill:url(#SVGID_00000062156321021126002330000008226022654459607987_);" d="M1809.94,1173.7
			c-14.71-7.66-46.21-16.02-96.82-24.91l177.15-287.7h-63.39l-197.87,312.38l9.63,0.85c84.72,7.66,109.91,11.88,116.23,14.26
			c35.27,14.49,52.38,45.99,52.38,97.12v321.35h-203.1c0-249.19-0.16-498.4-0.46-747.63c-1.2-7.8-5.26-14.87-11.4-19.86
			c-15.4-14.49-31.96-28.44-48.98-43.32c0,145.7,0,291.22,0,436.56v437.71h322.71V1274.2
			C1866.08,1225.75,1846.99,1191.79,1809.94,1173.7z"/>
		
			<radialGradient id="SVGID_00000099659124081634331500000016426845603545207694_" cx="702.2401" cy="1421.387" r="0.7434" gradientTransform="matrix(6016.3599 0 0 -133579 -4213808 190015440)" gradientUnits="userSpaceOnUse">
			<stop  offset="0.34" style="stop-color:#C39864"/>
			<stop  offset="1" style="stop-color:#936036"/>
		</radialGradient>
		<path style="fill:url(#SVGID_00000099659124081634331500000016426845603545207694_);" d="M1276.65,379.61
			c-16.18-25.76-34.58-50.44-52.99-76.66c0,445.99,0,891.06,0,1335.21c-0.33,10.9,2.33,21.68,7.7,31.2
			c17.71,27.52,37.58,53.66,56.45,80.87c0.53-2.09,0.86-4.21,1-6.36c0-442.93-0.16-885.85-0.46-1328.77
			C1287.72,402.45,1283.68,390.19,1276.65,379.61z"/>
		
			<radialGradient id="SVGID_00000096764423107373724750000017328862302916657817_" cx="702.3488" cy="1421.7749" r="0.7434" gradientTransform="matrix(20761.5996 0 0 -52336.3984 -14544844 74526296)" gradientUnits="userSpaceOnUse">
			<stop  offset="0.34" style="stop-color:#C39864"/>
			<stop  offset="1" style="stop-color:#936036"/>
		</radialGradient>
		<path style="fill:url(#SVGID_00000096764423107373724750000017328862302916657817_);" d="M995.38,1186.2
			c-14.63-7.66-46.21-16.02-96.81-24.91l177.14-287.7h-63.39l-198.1,312.38l9.71,0.85c84.72,7.66,109.91,11.88,116.22,14.26
			c35.2,14.49,52.38,45.99,52.38,97.12v321.35H789.97c0-249.24-0.16-498.45-0.47-747.64c-1.23-7.84-5.37-14.93-11.63-19.85
			c-14.94-14.49-31.96-28.44-48.99-43.32c0,145.75,0,291.27,0,436.56v437.71h322.79v-396.01
			C1051.99,1238.25,1032.82,1204.29,995.38,1186.2z"/>
	</g>
</g>
</svg>
